<?xml version="1.0" encoding="utf-8"?>
<!-- Generator: Adobe Illustrator 22.0.0, SVG Export Plug-In . SVG Version: 6.00 Build 0)  -->
<svg version="1.1" id="Слой_1" xmlns="http://www.w3.org/2000/svg" xmlns:xlink="http://www.w3.org/1999/xlink" x="0px" y="0px"
	 viewBox="0 0 400 400" style="enable-background:new 0 0 400 400;" xml:space="preserve">
<style type="text/css">
	.st0{fill:#EE4142;}
	.st1{fill:#0B182D;}
</style>
<path class="st0" d="M166,119.7h-19.9c-1.6,0-2.9,1.3-2.9,2.9v11.4c0,1.6,1.3,2.9,2.9,2.9H166c1.6,0,2.9-1.3,2.9-2.9v-11.4
	C168.9,121.1,167.6,119.7,166,119.7z"/>
<path class="st1" d="M393.1,43.7l-115,130.5c-4.9,5.6-12.1,8.8-19.5,8.8H0.5V0.5h373.1C396,0.5,407.9,26.9,393.1,43.7z"/>
<g>
	<path class="st0" d="M167.2,26c-25.8,0-46.8,21-46.8,46.8c0,24.9,35.6,73.7,37.1,75.7c2.5,3.4,6.1,5.4,9.8,5.4s7.3-2,9.8-5.4
		c1.5-2.1,37.1-50.8,37.1-75.7C214,47,193,26,167.2,26z M172,144.9c-2.7,3.7-6.9,3.7-9.6,0c-0.4-0.5-35.9-49.2-35.9-72.1
		c0-22.4,18.2-40.7,40.7-40.7s40.7,18.2,40.7,40.7C207.8,95.7,172.3,144.4,172,144.9z"/>
	<path class="st0" d="M167.2,45.6c-12.9,0-23.5,10.5-23.5,23.5c0,12.9,10.5,23.5,23.5,23.5s23.5-10.5,23.5-23.5
		C190.6,56.1,180.1,45.6,167.2,45.6z M167.2,86.4c-9.5,0-17.3-7.8-17.3-17.3c0-9.5,7.8-17.3,17.3-17.3c9.5,0,17.3,7.8,17.3,17.3
		C184.5,78.6,176.7,86.4,167.2,86.4z"/>
</g>
</svg>
