<?xml version="1.0" encoding="utf-8"?>
<!-- Generator: Adobe Illustrator 22.0.0, SVG Export Plug-In . SVG Version: 6.00 Build 0)  -->
<svg version="1.1" id="Слой_1" xmlns="http://www.w3.org/2000/svg" xmlns:xlink="http://www.w3.org/1999/xlink" x="0px" y="0px"
	 viewBox="0 0 400 400" style="enable-background:new 0 0 400 400;" xml:space="preserve">
<style type="text/css">
	.st0{fill:#EE4142;}
	.st1{fill:#0B182D;}
</style>
<path class="st0" d="M166,119.7h-19.9c-1.6,0-2.9,1.3-2.9,2.9v11.4c0,1.6,1.3,2.9,2.9,2.9H166c1.6,0,2.9-1.3,2.9-2.9v-11.4
	C168.9,121.1,167.6,119.7,166,119.7z"/>
<path class="st1" d="M393.1,43.7l-115,130.5c-4.9,5.6-12.1,8.8-19.5,8.8H0.5V0.5h373.1C396,0.5,407.9,26.9,393.1,43.7z"/>
<path class="st0" d="M239.6,48.7H133.8c-8.6,0-15.7,7-15.7,15.7v60.9c0,8.6,7,15.7,15.7,15.7h105.8c8.6,0,15.7-7,15.7-15.7V64.4
	C255.3,55.8,248.3,48.7,239.6,48.7z M208.4,94.9l38.9-35.6c1,1.5,1.6,3.2,1.6,5.2v60.9c0,1.9-0.6,3.7-1.6,5.2L208.4,94.9z
	 M239.6,55.2c0.8,0,1.5,0.1,2.2,0.3l-50.9,46.7c-2.3,2.1-6.1,2.1-8.3,0l-50.9-46.7c0.7-0.2,1.4-0.3,2.2-0.3H239.6z M126.2,130.5
	c-1-1.5-1.6-3.3-1.6-5.2V64.4c0-1.9,0.6-3.7,1.6-5.2l38.9,35.6L126.2,130.5z M133.8,134.6c-0.8,0-1.5-0.1-2.2-0.3l38.2-35l8.4,7.7
	c2.3,2.2,5.4,3.2,8.5,3.2c3.1,0,6.2-1.1,8.5-3.2l8.4-7.7l38.2,35c-0.7,0.2-1.4,0.3-2.2,0.3H133.8z"/>
</svg>
