<svg xmlns="http://www.w3.org/2000/svg" width="1920" height="1080"><path d="M68,1309L-175,1282L412,1378Z" fill="#5b726f" stroke="#5b726f" stroke-width="1.51"/><path d="M656,1362L412,1378L772,1363Z" fill="#56726e" stroke="#56726e" stroke-width="1.51"/><path d="M-163,-295L454,-287L1005,-297Z" fill="#425754" stroke="#425754" stroke-width="1.51"/><path d="M772,1363L412,1378L1131,1362Z" fill="#577672" stroke="#577672" stroke-width="1.51"/><path d="M1129,-281L1370,-258L1574,-292Z" fill="#4e736f" stroke="#4e736f" stroke-width="1.51"/><path d="M1005,-297L1129,-281L1574,-292Z" fill="#57837d" stroke="#57837d" stroke-width="1.51"/><path d="M1131,1362L412,1378L1675,1374Z" fill="#6b9791" stroke="#6b9791" stroke-width="1.51"/><path d="M2032,729L1962,946L2139,740Z" fill="#5e8883" stroke="#5e8883" stroke-width="1.51"/><path d="M2139,740L1962,946L2154,1035Z" fill="#547671" stroke="#547671" stroke-width="1.51"/><path d="M2139,740L2154,1035L2162,689Z" fill="#638b86" stroke="#638b86" stroke-width="1.51"/><path d="M1960,347L2000,416L2166,221Z" fill="#4b6864" stroke="#4b6864" stroke-width="1.51"/><path d="M2000,416L2112,522L2166,221Z" fill="#4d6c68" stroke="#4d6c68" stroke-width="1.51"/><path d="M2112,522L2162,689L2166,221Z" fill="#597d78" stroke="#597d78" stroke-width="1.51"/><path d="M2028,51L2145,185L2175,-66Z" fill="#5c7673" stroke="#5c7673" stroke-width="1.51"/><path d="M2043,-51L2028,51L2175,-66Z" fill="#58706d" stroke="#58706d" stroke-width="1.51"/><path d="M2145,185L2166,221L2175,-66Z" fill="#5d7773" stroke="#5d7773" stroke-width="1.51"/><path d="M2107,1187L1918,1261L2185,1270Z" fill="#546865" stroke="#546865" stroke-width="1.51"/><path d="M1918,1261L1878,1355L2185,1270Z" fill="#546866" stroke="#546866" stroke-width="1.51"/><path d="M2154,1035L2107,1187L2185,1270Z" fill="#526664" stroke="#526664" stroke-width="1.51"/><path d="M2162,689L2154,1035L2185,1270Z" fill="#4f6865" stroke="#4f6865" stroke-width="1.51"/><path d="M2043,-51L2175,-66L2189,-194Z" fill="#566b68" stroke="#566b68" stroke-width="1.51"/><path d="M1946,-256L2043,-51L2189,-194Z" fill="#4d605e" stroke="#4d605e" stroke-width="1.51"/><path d="M2175,-66L2166,221L2189,-194Z" fill="#5f7673" stroke="#5f7673" stroke-width="1.51"/><path d="M2162,689L2185,1270L2189,-194Z" fill="#66918b" stroke="#66918b" stroke-width="1.51"/><path d="M2166,221L2162,689L2189,-194Z" fill="#57736f" stroke="#57736f" stroke-width="1.51"/><path d="M2112,522L1973,579L2162,689Z" fill="#618c86" stroke="#618c86" stroke-width="1.51"/><path d="M1973,579L2032,729L2162,689Z" fill="#669690" stroke="#669690" stroke-width="1.51"/><path d="M2145,185L1960,347L2166,221Z" fill="#526e6a" stroke="#526e6a" stroke-width="1.51"/><path d="M2032,729L2139,740L2162,689Z" fill="#6d9e98" stroke="#6d9e98" stroke-width="1.51"/><path d="M1921,1170L2107,1187L2154,1035Z" fill="#4a5f5c" stroke="#4a5f5c" stroke-width="1.51"/><path d="M1962,946L1921,1170L2154,1035Z" fill="#405653" stroke="#405653" stroke-width="1.51"/><path d="M2028,51L1871,156L2145,185Z" fill="#536e6a" stroke="#536e6a" stroke-width="1.51"/><path d="M1871,156L1960,347L2145,185Z" fill="#4d6965" stroke="#4d6965" stroke-width="1.51"/><path d="M1921,1170L1918,1261L2107,1187Z" fill="#4c615e" stroke="#4c615e" stroke-width="1.51"/><path d="M2000,416L1973,579L2112,522Z" fill="#557a76" stroke="#557a76" stroke-width="1.51"/><path d="M1872,519L1973,579L2000,416Z" fill="#507671" stroke="#507671" stroke-width="1.51"/><path d="M1816,807L1962,946L2032,729Z" fill="#557e79" stroke="#557e79" stroke-width="1.51"/><path d="M1752,-128L2028,51L2043,-51Z" fill="#4e6663" stroke="#4e6663" stroke-width="1.51"/><path d="M1810,-193L1752,-128L2043,-51Z" fill="#455a57" stroke="#455a57" stroke-width="1.51"/><path d="M1946,-256L1810,-193L2043,-51Z" fill="#465957" stroke="#465957" stroke-width="1.51"/><path d="M1752,-128L1871,156L2028,51Z" fill="#4f6a67" stroke="#4f6a67" stroke-width="1.51"/><path d="M1973,579L1816,807L2032,729Z" fill="#62968f" stroke="#62968f" stroke-width="1.51"/><path d="M1574,-292L1810,-193L1946,-256Z" fill="#384a47" stroke="#384a47" stroke-width="1.51"/><path d="M1778,616L1816,807L1973,579Z" fill="#598a84" stroke="#598a84" stroke-width="1.51"/><path d="M1824,929L1921,1170L1962,946Z" fill="#3d5753" stroke="#3d5753" stroke-width="1.51"/><path d="M1816,807L1824,929L1962,946Z" fill="#486d68" stroke="#486d68" stroke-width="1.51"/><path d="M1960,347L1872,519L2000,416Z" fill="#496a65" stroke="#496a65" stroke-width="1.51"/><path d="M1752,-128L1694,100L1871,156Z" fill="#486460" stroke="#486460" stroke-width="1.51"/><path d="M1824,929L1753,1131L1921,1170Z" fill="#374e4b" stroke="#374e4b" stroke-width="1.51"/><path d="M1871,156L1750,262L1960,347Z" fill="#44615d" stroke="#44615d" stroke-width="1.51"/><path d="M1872,519L1778,616L1973,579Z" fill="#517c77" stroke="#517c77" stroke-width="1.51"/><path d="M1750,262L1872,519L1960,347Z" fill="#3f5d59" stroke="#3f5d59" stroke-width="1.51"/><path d="M1753,1131L1918,1261L1921,1170Z" fill="#435956" stroke="#435956" stroke-width="1.51"/><path d="M1753,1131L1878,1355L1918,1261Z" fill="#475d5a" stroke="#475d5a" stroke-width="1.51"/><path d="M1750,262L1582,460L1872,519Z" fill="#3a5c58" stroke="#3a5c58" stroke-width="1.51"/><path d="M1582,460L1663,591L1872,519Z" fill="#456f6a" stroke="#456f6a" stroke-width="1.51"/><path d="M1753,1131L1675,1374L1878,1355Z" fill="#465c59" stroke="#465c59" stroke-width="1.51"/><path d="M1663,591L1778,616L1872,519Z" fill="#4b7772" stroke="#4b7772" stroke-width="1.51"/><path d="M1694,100L1750,262L1871,156Z" fill="#425f5c" stroke="#425f5c" stroke-width="1.51"/><path d="M1424,1278L1131,1362L1675,1374Z" fill="#618783" stroke="#618783" stroke-width="1.51"/><path d="M1657,893L1645,1114L1753,1131Z" fill="#324c49" stroke="#324c49" stroke-width="1.51"/><path d="M1663,591L1573,779L1778,616Z" fill="#548983" stroke="#548983" stroke-width="1.51"/><path d="M1778,616L1573,779L1816,807Z" fill="#51857f" stroke="#51857f" stroke-width="1.51"/><path d="M1816,807L1657,893L1824,929Z" fill="#446a65" stroke="#446a65" stroke-width="1.51"/><path d="M1657,893L1753,1131L1824,929Z" fill="#375450" stroke="#375450" stroke-width="1.51"/><path d="M1574,-292L1752,-128L1810,-193Z" fill="#384d4a" stroke="#384d4a" stroke-width="1.51"/><path d="M1573,779L1657,893L1816,807Z" fill="#4b7872" stroke="#4b7872" stroke-width="1.51"/><path d="M1568,-28L1694,100L1752,-128Z" fill="#476460" stroke="#476460" stroke-width="1.51"/><path d="M1645,1114L1675,1374L1753,1131Z" fill="#3f5754" stroke="#3f5754" stroke-width="1.51"/><path d="M1642,227L1582,460L1750,262Z" fill="#3d605b" stroke="#3d605b" stroke-width="1.51"/><path d="M1694,100L1642,227L1750,262Z" fill="#405f5c" stroke="#405f5c" stroke-width="1.51"/><path d="M1574,-292L1568,-28L1752,-128Z" fill="#415d58" stroke="#415d58" stroke-width="1.51"/><path d="M1484,-238L1568,-28L1574,-292Z" fill="#466460" stroke="#466460" stroke-width="1.51"/><path d="M1486,386L1582,460L1642,227Z" fill="#416a64" stroke="#416a64" stroke-width="1.51"/><path d="M1424,998L1495,1123L1645,1114Z" fill="#40635f" stroke="#40635f" stroke-width="1.51"/><path d="M1424,998L1645,1114L1657,893Z" fill="#3f635e" stroke="#3f635e" stroke-width="1.51"/><path d="M1645,1114L1495,1123L1675,1374Z" fill="#45625f" stroke="#45625f" stroke-width="1.51"/><path d="M1495,1123L1424,1278L1675,1374Z" fill="#50706c" stroke="#50706c" stroke-width="1.51"/><path d="M1490,-2L1642,227L1694,100Z" fill="#4b6e6a" stroke="#4b6e6a" stroke-width="1.51"/><path d="M1568,-28L1490,-2L1694,100Z" fill="#50746f" stroke="#50746f" stroke-width="1.51"/><path d="M1490,-2L1437,43L1642,227Z" fill="#527a75" stroke="#527a75" stroke-width="1.51"/><path d="M1437,43L1474,247L1642,227Z" fill="#4f7873" stroke="#4f7873" stroke-width="1.51"/><path d="M1474,247L1486,386L1642,227Z" fill="#48716c" stroke="#48716c" stroke-width="1.51"/><path d="M1465,579L1573,779L1663,591Z" fill="#5b968e" stroke="#5b968e" stroke-width="1.51"/><path d="M1582,460L1465,579L1663,591Z" fill="#50857e" stroke="#50857e" stroke-width="1.51"/><path d="M1465,579L1501,776L1573,779Z" fill="#65a79f" stroke="#65a79f" stroke-width="1.51"/><path d="M1573,779L1501,776L1657,893Z" fill="#538882" stroke="#538882" stroke-width="1.51"/><path d="M1501,776L1424,998L1657,893Z" fill="#4f8079" stroke="#4f8079" stroke-width="1.51"/><path d="M1484,-238L1490,-2L1568,-28Z" fill="#4e726d" stroke="#4e726d" stroke-width="1.51"/><path d="M1370,-258L1484,-238L1574,-292Z" fill="#466561" stroke="#466561" stroke-width="1.51"/><path d="M1486,386L1465,579L1582,460Z" fill="#4f817b" stroke="#4f817b" stroke-width="1.51"/><path d="M1484,-238L1362,-48L1490,-2Z" fill="#537a75" stroke="#537a75" stroke-width="1.51"/><path d="M1334,1251L1131,1362L1424,1278Z" fill="#66948e" stroke="#66948e" stroke-width="1.51"/><path d="M1336,741L1262,892L1424,998Z" fill="#5e9c94" stroke="#5e9c94" stroke-width="1.51"/><path d="M1437,43L1255,115L1474,247Z" fill="#5b8b85" stroke="#5b8b85" stroke-width="1.51"/><path d="M1370,-258L1362,-48L1484,-238Z" fill="#517772" stroke="#517772" stroke-width="1.51"/><path d="M1321,425L1465,579L1486,386Z" fill="#548b84" stroke="#548b84" stroke-width="1.51"/><path d="M1474,247L1311,306L1486,386Z" fill="#4f7f79" stroke="#4f7f79" stroke-width="1.51"/><path d="M1334,1251L1424,1278L1495,1123Z" fill="#557c78" stroke="#557c78" stroke-width="1.51"/><path d="M1465,579L1336,741L1501,776Z" fill="#6ab1a8" stroke="#6ab1a8" stroke-width="1.51"/><path d="M1336,741L1424,998L1501,776Z" fill="#5d9991" stroke="#5d9991" stroke-width="1.51"/><path d="M1424,998L1268,1131L1495,1123Z" fill="#4a746e" stroke="#4a746e" stroke-width="1.51"/><path d="M1268,1131L1334,1251L1495,1123Z" fill="#547f7a" stroke="#547f7a" stroke-width="1.51"/><path d="M1362,-48L1437,43L1490,-2Z" fill="#5b8680" stroke="#5b8680" stroke-width="1.51"/><path d="M1289,593L1336,741L1465,579Z" fill="#69b1a8" stroke="#69b1a8" stroke-width="1.51"/><path d="M1255,115L1311,306L1474,247Z" fill="#598d87" stroke="#598d87" stroke-width="1.51"/><path d="M1311,306L1321,425L1486,386Z" fill="#50847e" stroke="#50847e" stroke-width="1.51"/><path d="M1321,425L1289,593L1465,579Z" fill="#5fa098" stroke="#5fa098" stroke-width="1.51"/><path d="M1362,-48L1255,115L1437,43Z" fill="#62948d" stroke="#62948d" stroke-width="1.51"/><path d="M1262,892L1268,1131L1424,998Z" fill="#51847e" stroke="#51847e" stroke-width="1.51"/><path d="M1262,892L1133,1033L1268,1131Z" fill="#588f88" stroke="#588f88" stroke-width="1.51"/><path d="M1202,825L1262,892L1336,741Z" fill="#6bb3aa" stroke="#6bb3aa" stroke-width="1.51"/><path d="M1167,-31L1255,115L1362,-48Z" fill="#699f98" stroke="#699f98" stroke-width="1.51"/><path d="M1167,-31L1362,-48L1370,-258Z" fill="#5e8c86" stroke="#5e8c86" stroke-width="1.51"/><path d="M1129,-281L1167,-31L1370,-258Z" fill="#5e8f89" stroke="#5e8f89" stroke-width="1.51"/><path d="M1255,115L1150,211L1311,306Z" fill="#629d95" stroke="#629d95" stroke-width="1.51"/><path d="M1178,563L1289,593L1321,425Z" fill="#66ada4" stroke="#66ada4" stroke-width="1.51"/><path d="M1163,429L1178,563L1321,425Z" fill="#65aaa1" stroke="#65aaa1" stroke-width="1.51"/><path d="M1311,306L1163,429L1321,425Z" fill="#59958e" stroke="#59958e" stroke-width="1.51"/><path d="M1289,593L1202,825L1336,741Z" fill="#76c8bd" stroke="#76c8bd" stroke-width="1.51"/><path d="M214,1327L68,1309L412,1378Z" fill="#5f7975" stroke="#5f7975" stroke-width="1.51"/><path d="M1178,563L1202,825L1289,593Z" fill="#76c9bf" stroke="#76c9bf" stroke-width="1.51"/><path d="M1268,1131L1131,1362L1334,1251Z" fill="#659791" stroke="#659791" stroke-width="1.51"/><path d="M1150,211L1163,429L1311,306Z" fill="#5e9b93" stroke="#5e9b93" stroke-width="1.51"/><path d="M1118,1084L1131,1362L1268,1131Z" fill="#60918b" stroke="#60918b" stroke-width="1.51"/><path d="M1178,563L1001,626L1202,825Z" fill="#72c2b8" stroke="#72c2b8" stroke-width="1.51"/><path d="M1167,-31L1139,113L1255,115Z" fill="#6aa39c" stroke="#6aa39c" stroke-width="1.51"/><path d="M1139,113L1150,211L1255,115Z" fill="#669f98" stroke="#669f98" stroke-width="1.51"/><path d="M1133,1033L1118,1084L1268,1131Z" fill="#558882" stroke="#558882" stroke-width="1.51"/><path d="M1202,825L1133,1033L1262,892Z" fill="#63a49c" stroke="#63a49c" stroke-width="1.51"/><path d="M1118,1084L887,1264L1131,1362Z" fill="#5c8882" stroke="#5c8882" stroke-width="1.51"/><path d="M1150,211L908,298L1163,429Z" fill="#568d86" stroke="#568d86" stroke-width="1.51"/><path d="M1129,-281L965,-114L1167,-31Z" fill="#5a8781" stroke="#5a8781" stroke-width="1.51"/><path d="M1032,970L1133,1033L1202,825Z" fill="#5b968f" stroke="#5b968f" stroke-width="1.51"/><path d="M997,806L1032,970L1202,825Z" fill="#60a199" stroke="#60a199" stroke-width="1.51"/><path d="M1001,626L997,806L1202,825Z" fill="#6db8af" stroke="#6db8af" stroke-width="1.51"/><path d="M980,1062L887,1264L1118,1084Z" fill="#4f7a75" stroke="#4f7a75" stroke-width="1.51"/><path d="M1163,429L1001,626L1178,563Z" fill="#65aaa2" stroke="#65aaa2" stroke-width="1.51"/><path d="M1005,-297L965,-114L1129,-281Z" fill="#517873" stroke="#517873" stroke-width="1.51"/><path d="M965,-114L898,89L1139,113Z" fill="#60908a" stroke="#60908a" stroke-width="1.51"/><path d="M895,447L1001,626L1163,429Z" fill="#5b9a92" stroke="#5b9a92" stroke-width="1.51"/><path d="M908,298L895,447L1163,429Z" fill="#50857e" stroke="#50857e" stroke-width="1.51"/><path d="M965,-114L1139,113L1167,-31Z" fill="#63968f" stroke="#63968f" stroke-width="1.51"/><path d="M887,1264L772,1363L1131,1362Z" fill="#5e837f" stroke="#5e837f" stroke-width="1.51"/><path d="M1139,113L898,89L1150,211Z" fill="#5e928c" stroke="#5e928c" stroke-width="1.51"/><path d="M898,89L908,298L1150,211Z" fill="#578881" stroke="#578881" stroke-width="1.51"/><path d="M1032,970L1118,1084L1133,1033Z" fill="#4f817b" stroke="#4f817b" stroke-width="1.51"/><path d="M1032,970L980,1062L1118,1084Z" fill="#4b7a74" stroke="#4b7a74" stroke-width="1.51"/><path d="M-163,-295L161,-238L454,-287Z" fill="#485c59" stroke="#485c59" stroke-width="1.51"/><path d="M839,1170L887,1264L980,1062Z" fill="#4c736e" stroke="#4c736e" stroke-width="1.51"/><path d="M856,733L997,806L1001,626Z" fill="#6ab3a9" stroke="#6ab3a9" stroke-width="1.51"/><path d="M454,-287L788,-184L1005,-297Z" fill="#3e5955" stroke="#3e5955" stroke-width="1.51"/><path d="M997,806L834,1009L1032,970Z" fill="#528780" stroke="#528780" stroke-width="1.51"/><path d="M834,1009L980,1062L1032,970Z" fill="#48756f" stroke="#48756f" stroke-width="1.51"/><path d="M856,733L834,1009L997,806Z" fill="#57918a" stroke="#57918a" stroke-width="1.51"/><path d="M895,447L783,495L1001,626Z" fill="#558f88" stroke="#558f88" stroke-width="1.51"/><path d="M788,-184L965,-114L1005,-297Z" fill="#4c706b" stroke="#4c706b" stroke-width="1.51"/><path d="M783,495L856,733L1001,626Z" fill="#5e9e95" stroke="#5e9e95" stroke-width="1.51"/><path d="M454,-287L692,-168L788,-184Z" fill="#405a56" stroke="#405a56" stroke-width="1.51"/><path d="M783,495L742,665L856,733Z" fill="#5a968e" stroke="#5a968e" stroke-width="1.51"/><path d="M898,89L783,164L908,298Z" fill="#507b76" stroke="#507b76" stroke-width="1.51"/><path d="M744,-114L898,89L965,-114Z" fill="#537a75" stroke="#537a75" stroke-width="1.51"/><path d="M834,1009L839,1170L980,1062Z" fill="#436a65" stroke="#436a65" stroke-width="1.51"/><path d="M788,-184L744,-114L965,-114Z" fill="#4b6d68" stroke="#4b6d68" stroke-width="1.51"/><path d="M572,797L834,1009L856,733Z" fill="#4f837c" stroke="#4f837c" stroke-width="1.51"/><path d="M732,262L783,495L895,447Z" fill="#45736d" stroke="#45736d" stroke-width="1.51"/><path d="M744,-114L689,-10L898,89Z" fill="#4f746f" stroke="#4f746f" stroke-width="1.51"/><path d="M732,262L895,447L908,298Z" fill="#47746e" stroke="#47746e" stroke-width="1.51"/><path d="M783,164L732,262L908,298Z" fill="#49736e" stroke="#49736e" stroke-width="1.51"/><path d="M572,797L585,962L834,1009Z" fill="#456f69" stroke="#456f69" stroke-width="1.51"/><path d="M689,-10L783,164L898,89Z" fill="#507872" stroke="#507872" stroke-width="1.51"/><path d="M839,1170L772,1363L887,1264Z" fill="#51736f" stroke="#51736f" stroke-width="1.51"/><path d="M834,1009L600,1204L839,1170Z" fill="#40615c" stroke="#40615c" stroke-width="1.51"/><path d="M600,1204L772,1363L839,1170Z" fill="#496864" stroke="#496864" stroke-width="1.51"/><path d="M742,665L572,797L856,733Z" fill="#5a9790" stroke="#5a9790" stroke-width="1.51"/><path d="M600,1204L656,1362L772,1363Z" fill="#4e6b67" stroke="#4e6b67" stroke-width="1.51"/><path d="M732,262L611,456L783,495Z" fill="#406964" stroke="#406964" stroke-width="1.51"/><path d="M585,962L600,1204L834,1009Z" fill="#375753" stroke="#375753" stroke-width="1.51"/><path d="M689,-10L572,45L783,164Z" fill="#4c706b" stroke="#4c706b" stroke-width="1.51"/><path d="M629,645L742,665L783,495Z" fill="#538a82" stroke="#538a82" stroke-width="1.51"/><path d="M611,456L629,645L783,495Z" fill="#4c7e78" stroke="#4c7e78" stroke-width="1.51"/><path d="M692,-168L744,-114L788,-184Z" fill="#44615e" stroke="#44615e" stroke-width="1.51"/><path d="M572,45L732,262L783,164Z" fill="#486c67" stroke="#486c67" stroke-width="1.51"/><path d="M568,280L611,456L732,262Z" fill="#416762" stroke="#416762" stroke-width="1.51"/><path d="M572,45L568,280L732,262Z" fill="#486c68" stroke="#486c68" stroke-width="1.51"/><path d="M629,645L572,797L742,665Z" fill="#5d9a92" stroke="#5d9a92" stroke-width="1.51"/><path d="M692,-168L689,-10L744,-114Z" fill="#456560" stroke="#456560" stroke-width="1.51"/><path d="M487,171L568,280L572,45Z" fill="#4c706b" stroke="#4c706b" stroke-width="1.51"/><path d="M585,962L448,1069L600,1204Z" fill="#3d5b57" stroke="#3d5b57" stroke-width="1.51"/><path d="M572,45L689,-10L692,-168Z" fill="#4b6b66" stroke="#4b6b66" stroke-width="1.51"/><path d="M429,-112L572,45L692,-168Z" fill="#4b6a65" stroke="#4b6a65" stroke-width="1.51"/><path d="M454,-287L429,-112L692,-168Z" fill="#455f5c" stroke="#455f5c" stroke-width="1.51"/><path d="M611,456L390,589L629,645Z" fill="#538680" stroke="#538680" stroke-width="1.51"/><path d="M600,1204L412,1378L656,1362Z" fill="#536f6b" stroke="#536f6b" stroke-width="1.51"/><path d="M161,-238L337,-240L454,-287Z" fill="#475e5b" stroke="#475e5b" stroke-width="1.51"/><path d="M572,797L494,850L585,962Z" fill="#4f7d77" stroke="#4f7d77" stroke-width="1.51"/><path d="M568,280L430,388L611,456Z" fill="#436864" stroke="#436864" stroke-width="1.51"/><path d="M390,589L572,797L629,645Z" fill="#5f9991" stroke="#5f9991" stroke-width="1.51"/><path d="M430,388L390,589L611,456Z" fill="#4e7b75" stroke="#4e7b75" stroke-width="1.51"/><path d="M448,1069L412,1378L600,1204Z" fill="#4c6864" stroke="#4c6864" stroke-width="1.51"/><path d="M390,589L494,850L572,797Z" fill="#5f9891" stroke="#5f9891" stroke-width="1.51"/><path d="M494,850L378,946L585,962Z" fill="#4b746f" stroke="#4b746f" stroke-width="1.51"/><path d="M378,946L448,1069L585,962Z" fill="#436662" stroke="#436662" stroke-width="1.51"/><path d="M411,289L430,388L568,280Z" fill="#476c67" stroke="#476c67" stroke-width="1.51"/><path d="M320,-46L487,171L572,45Z" fill="#547672" stroke="#547672" stroke-width="1.51"/><path d="M429,-112L320,-46L572,45Z" fill="#52716d" stroke="#52716d" stroke-width="1.51"/><path d="M487,171L411,289L568,280Z" fill="#4a6e69" stroke="#4a6e69" stroke-width="1.51"/><path d="M215,1147L214,1327L412,1378Z" fill="#58736f" stroke="#58736f" stroke-width="1.51"/><path d="M215,1147L412,1378L448,1069Z" fill="#4e6a66" stroke="#4e6a66" stroke-width="1.51"/><path d="M337,-240L429,-112L454,-287Z" fill="#47605d" stroke="#47605d" stroke-width="1.51"/><path d="M320,-46L262,59L487,171Z" fill="#577974" stroke="#577974" stroke-width="1.51"/><path d="M390,589L289,788L494,850Z" fill="#639c94" stroke="#639c94" stroke-width="1.51"/><path d="M289,788L378,946L494,850Z" fill="#56827d" stroke="#56827d" stroke-width="1.51"/><path d="M262,59L411,289L487,171Z" fill="#51746f" stroke="#51746f" stroke-width="1.51"/><path d="M289,788L307,926L378,946Z" fill="#557f79" stroke="#557f79" stroke-width="1.51"/><path d="M262,59L211,225L411,289Z" fill="#537571" stroke="#537571" stroke-width="1.51"/><path d="M277,410L390,589L430,388Z" fill="#507b75" stroke="#507b75" stroke-width="1.51"/><path d="M277,410L263,563L390,589Z" fill="#588580" stroke="#588580" stroke-width="1.51"/><path d="M378,946L215,1147L448,1069Z" fill="#425f5b" stroke="#425f5b" stroke-width="1.51"/><path d="M307,926L215,1147L378,946Z" fill="#476863" stroke="#476863" stroke-width="1.51"/><path d="M337,-240L320,-46L429,-112Z" fill="#4e6965" stroke="#4e6965" stroke-width="1.51"/><path d="M411,289L277,410L430,388Z" fill="#486d68" stroke="#486d68" stroke-width="1.51"/><path d="M263,563L289,788L390,589Z" fill="#639a93" stroke="#639a93" stroke-width="1.51"/><path d="M211,225L277,410L411,289Z" fill="#4d716c" stroke="#4d716c" stroke-width="1.51"/><path d="M263,563L132,748L289,788Z" fill="#6ca59e" stroke="#6ca59e" stroke-width="1.51"/><path d="M118,1010L215,1147L307,926Z" fill="#486662" stroke="#486662" stroke-width="1.51"/><path d="M161,-238L172,-50L320,-46Z" fill="#546f6b" stroke="#546f6b" stroke-width="1.51"/><path d="M161,-238L320,-46L337,-240Z" fill="#4e6764" stroke="#4e6764" stroke-width="1.51"/><path d="M211,225L120,354L277,410Z" fill="#4f726e" stroke="#4f726e" stroke-width="1.51"/><path d="M181,480L263,563L277,410Z" fill="#56827c" stroke="#56827c" stroke-width="1.51"/><path d="M172,-50L262,59L320,-46Z" fill="#597874" stroke="#597874" stroke-width="1.51"/><path d="M289,788L132,748L307,926Z" fill="#5f8f88" stroke="#5f8f88" stroke-width="1.51"/><path d="M132,748L118,1010L307,926Z" fill="#57817b" stroke="#57817b" stroke-width="1.51"/><path d="M-163,-295L-73,-229L161,-238Z" fill="#425250" stroke="#425250" stroke-width="1.51"/><path d="M118,1010L136,1125L215,1147Z" fill="#496360" stroke="#496360" stroke-width="1.51"/><path d="M-91,1273L-175,1282L68,1309Z" fill="#506461" stroke="#506461" stroke-width="1.51"/><path d="M89,96L211,225L262,59Z" fill="#597a75" stroke="#597a75" stroke-width="1.51"/><path d="M120,354L181,480L277,410Z" fill="#527873" stroke="#527873" stroke-width="1.51"/><path d="M172,-50L89,96L262,59Z" fill="#5d7c78" stroke="#5d7c78" stroke-width="1.51"/><path d="M181,480L39,694L263,563Z" fill="#608f89" stroke="#608f89" stroke-width="1.51"/><path d="M39,694L132,748L263,563Z" fill="#689d96" stroke="#689d96" stroke-width="1.51"/><path d="M10,761L118,1010L132,748Z" fill="#59857f" stroke="#59857f" stroke-width="1.51"/><path d="M161,-238L-8,-102L172,-50Z" fill="#4f6765" stroke="#4f6765" stroke-width="1.51"/><path d="M68,1309L214,1327L215,1147Z" fill="#58716e" stroke="#58716e" stroke-width="1.51"/><path d="M136,1125L68,1309L215,1147Z" fill="#506a67" stroke="#506a67" stroke-width="1.51"/><path d="M89,96L120,354L211,225Z" fill="#52726e" stroke="#52726e" stroke-width="1.51"/><path d="M10,761L-73,929L118,1010Z" fill="#4f736f" stroke="#4f736f" stroke-width="1.51"/><path d="M6,64L89,96L172,-50Z" fill="#597672" stroke="#597672" stroke-width="1.51"/><path d="M120,354L-52,492L181,480Z" fill="#4f756f" stroke="#4f756f" stroke-width="1.51"/><path d="M-52,492L39,694L181,480Z" fill="#59857f" stroke="#59857f" stroke-width="1.51"/><path d="M89,96L-79,335L120,354Z" fill="#4d6b66" stroke="#4d6b66" stroke-width="1.51"/><path d="M-8,-102L6,64L172,-50Z" fill="#546e6b" stroke="#546e6b" stroke-width="1.51"/><path d="M-73,-229L-8,-102L161,-238Z" fill="#485c5a" stroke="#485c5a" stroke-width="1.51"/><path d="M6,64L-79,335L89,96Z" fill="#4f6c68" stroke="#4f6c68" stroke-width="1.51"/><path d="M118,1010L-111,1207L136,1125Z" fill="#455d5a" stroke="#455d5a" stroke-width="1.51"/><path d="M-111,1207L68,1309L136,1125Z" fill="#4e6461" stroke="#4e6461" stroke-width="1.51"/><path d="M-73,929L-111,1207L118,1010Z" fill="#3d5351" stroke="#3d5351" stroke-width="1.51"/><path d="M39,694L10,761L132,748Z" fill="#659992" stroke="#659992" stroke-width="1.51"/><path d="M-111,1207L-91,1273L68,1309Z" fill="#4f6360" stroke="#4f6360" stroke-width="1.51"/><path d="M-79,335L-52,492L120,354Z" fill="#476763" stroke="#476763" stroke-width="1.51"/><path d="M-52,492L-76,672L39,694Z" fill="#5b8883" stroke="#5b8883" stroke-width="1.51"/><path d="M-196,1009L-111,1207L-73,929Z" fill="#394d4b" stroke="#394d4b" stroke-width="1.51"/><path d="M-165,49L-79,335L6,64Z" fill="#4c6763" stroke="#4c6763" stroke-width="1.51"/><path d="M-76,672L10,761L39,694Z" fill="#659992" stroke="#659992" stroke-width="1.51"/><path d="M-196,1009L-219,1100L-111,1207Z" fill="#3c4e4c" stroke="#3c4e4c" stroke-width="1.51"/><path d="M-190,-46L-165,49L-8,-102Z" fill="#4c625f" stroke="#4c625f" stroke-width="1.51"/><path d="M-8,-102L-165,49L6,64Z" fill="#516a67" stroke="#516a67" stroke-width="1.51"/><path d="M-76,672L-164,680L10,761Z" fill="#61938c" stroke="#61938c" stroke-width="1.51"/><path d="M-164,680L-233,840L10,761Z" fill="#5a8680" stroke="#5a8680" stroke-width="1.51"/><path d="M-233,840L-73,929L10,761Z" fill="#517772" stroke="#517772" stroke-width="1.51"/><path d="M-73,-229L-190,-46L-8,-102Z" fill="#475a58" stroke="#475a58" stroke-width="1.51"/><path d="M-165,49L-290,325L-79,335Z" fill="#445d59" stroke="#445d59" stroke-width="1.51"/><path d="M-79,335L-288,457L-52,492Z" fill="#45635f" stroke="#45635f" stroke-width="1.51"/><path d="M-164,680L-76,672L-52,492Z" fill="#58837d" stroke="#58837d" stroke-width="1.51"/><path d="M-288,457L-164,680L-52,492Z" fill="#4e736e" stroke="#4e736e" stroke-width="1.51"/><path d="M-290,325L-288,457L-79,335Z" fill="#3c5652" stroke="#3c5652" stroke-width="1.51"/><path d="M-233,840L-196,1009L-73,929Z" fill="#44625e" stroke="#44625e" stroke-width="1.51"/><path d="M-163,-295L-190,-46L-73,-229Z" fill="#41514f" stroke="#41514f" stroke-width="1.51"/><path d="M-111,1207L-175,1282L-91,1273Z" fill="#4a5d5b" stroke="#4a5d5b" stroke-width="1.51"/><path d="M-219,1100L-175,1282L-111,1207Z" fill="#435553" stroke="#435553" stroke-width="1.51"/><path d="M-290,325L-190,-46L-163,-295Z" fill="#495f5c" stroke="#495f5c" stroke-width="1.51"/><path d="M-190,-46L-290,325L-165,49Z" fill="#485f5d" stroke="#485f5d" stroke-width="1.51"/><path d="M-288,457L-233,840L-164,680Z" fill="#56817b" stroke="#56817b" stroke-width="1.51"/><path d="M-233,840L-219,1100L-196,1009Z" fill="#3c5351" stroke="#3c5351" stroke-width="1.51"/><path d="M-233,840L-288,457L-219,1100Z" fill="#507571" stroke="#507571" stroke-width="1.51"/></svg>