<?xml version="1.0" encoding="utf-8"?>
<!-- Generator: Adobe Illustrator 22.0.0, SVG Export Plug-In . SVG Version: 6.00 Build 0)  -->
<svg version="1.1" id="Слой_1" xmlns="http://www.w3.org/2000/svg" xmlns:xlink="http://www.w3.org/1999/xlink" x="0px" y="0px"
	 viewBox="0 0 400 400" style="enable-background:new 0 0 400 400;" xml:space="preserve">
<style type="text/css">
	.st0{fill:#EE4142;}
	.st1{fill:#0B182D;}
</style>
<path class="st0" d="M166,119.7h-19.9c-1.6,0-2.9,1.3-2.9,2.9v11.4c0,1.6,1.3,2.9,2.9,2.9H166c1.6,0,2.9-1.3,2.9-2.9v-11.4
	C168.9,121.1,167.6,119.7,166,119.7z"/>
<path class="st1" d="M393.1,43.7l-115,130.5c-4.9,5.6-12.1,8.8-19.5,8.8H0.5V0.5h373.1C396,0.5,407.9,26.9,393.1,43.7z"/>
<path class="st0" d="M228.5,122.5l-20.4-19.1c-3.6-3.4-9.6-3.5-13.3-0.2l-3.8,3.3c-1.7,1.5-3.9,3-4.6,3.2c-1.9,0.2-3.5-0.7-6-2.4
	l-0.7-0.4c-17-11.1-25-26.6-25.1-26.7c-0.8-1.7-0.6-4.6,0.5-6.1l4.7-6.2c3-4,2.5-9.8-1.1-13.3l-16.5-15.7c-2.2-2.4-6.5-6.5-10.2-6.6
	c-5.7-0.3-8.6,4.2-10.7,7.3l-0.6,0.9c-6.2,9.3-8.1,20.2-5.6,32.5c4.7,22.8,24.9,48.2,52.7,66.3c12.8,8.3,24.4,12.5,34.8,12.5
	c3.2,0,6.3-0.4,9.2-1.2c13.4-3.6,18.8-14.3,19-14.7C233,131.5,232,125.7,228.5,122.5z M224.7,132.6c-0.2,0.3-4.4,8.4-14.7,11.1
	c-10.4,2.8-23.3-0.7-38.2-10.4c-26.3-17.1-45.4-40.8-49.7-61.9c-2.1-10.4-0.6-19.5,4.6-27.2l0.6-1c1.9-2.9,2.9-4.2,4.4-4.2
	c0,0,0,0,0.1,0c0.9,0.2,3.5,2.3,5.6,4.5L154,59.4c1,1,1.2,2.9,0.3,4l-4.7,6.2c0,0,0,0,0,0c-2.7,3.7-3.2,9.5-1.2,13.5
	c0.4,0.7,8.9,17.3,27.5,29.4l0.7,0.4c2.8,1.8,6.3,4.1,10.8,3.5c2.8-0.4,6.7-3.5,8.2-4.8l3.8-3.3c1-0.9,2.9-0.9,3.9,0.1l20.4,19.1
	C225,128.7,225.4,131.1,224.7,132.6z"/>
</svg>
